<svg width="210" height="301" viewBox="0 0 210 301" fill="none" xmlns="http://www.w3.org/2000/svg">
<path opacity="0.7" d="M116.577 83.7178V151.816" stroke="#A64CED" stroke-width="163.436" stroke-linecap="round"/>
<path d="M141.773 71.4602C139.73 79.632 126.11 89.8467 115.896 89.8467" stroke="black" stroke-width="2.72393" stroke-linecap="round" stroke-linejoin="round"/>
<path d="M165.237 117.086C162.74 126.62 155.022 142.827 144.127 131.387C130.507 117.086 116.206 95.9755 101.906 94.6135C87.6051 93.2515 79.4335 98.0184 81.4763 103.466C82.842 107.108 89.0775 107.504 95.0958 107.298M103.268 106.871C101.01 106.946 98.0798 107.196 95.0958 107.298M110.077 116.405C107.354 117.358 103.949 117.393 101.906 117.358M95.0958 107.298C84.8811 108.914 86.2431 117.086 101.906 117.358M101.906 117.358C92.3719 119.129 95.0958 125.939 103.268 127.364M108.715 127.301C106.575 127.678 104.76 127.66 103.268 127.364M103.268 127.364C98.2416 130.663 99.627 135.836 106.673 136.464M112.12 136.153C110.037 136.521 108.219 136.602 106.673 136.464M106.673 136.464C122.335 170.202 159.108 183.822 185.666 157.945" stroke="black" stroke-width="2.72393" stroke-linecap="round"/>
<circle cx="95.4663" cy="66.6932" r="3.40491" fill="black"/>
<circle cx="124.068" cy="61.2455" r="3.40491" fill="black"/>
<path d="M113.853 230.81V324.785H56.6503L62.8949 319.321C65.8506 316.735 67.546 312.999 67.546 309.071V214.466" stroke="black" stroke-width="2.72393" stroke-linecap="round" stroke-linejoin="round"/>
<path d="M119.301 230.81V324.785H176.503L170.258 319.321C167.303 316.735 165.607 312.999 165.607 309.071V214.466" stroke="black" stroke-width="2.72393" stroke-linecap="round" stroke-linejoin="round"/>
<path d="M50.3292 71.8712C48.811 80.0735 48.1817 88.3949 47.0227 96.6539" stroke="white" stroke-width="2.72393" stroke-miterlimit="1.5" stroke-linecap="round" stroke-linejoin="round"/>
<path d="M71.8328 63.2884C64.9339 74.8082 59.1814 87.27 54.1017 99.6941" stroke="white" stroke-width="2.72393" stroke-miterlimit="1.5" stroke-linecap="round" stroke-linejoin="round"/>
<path d="M84.2104 83.2776C76.2879 87.9582 67.2364 97.877 60.4209 104.504" stroke="white" stroke-width="2.72393" stroke-miterlimit="1.5" stroke-linecap="round" stroke-linejoin="round"/>
<rect opacity="0.7" x="7.61963" y="110.38" width="50.3926" height="93.9755" rx="13.6196" transform="rotate(-15 7.61963 110.38)" fill="#2FDBBC"/>
<rect opacity="0.7" x="14.2919" y="114.232" width="14.1886" height="21.0342" rx="7.09432" transform="rotate(-15 14.2919 114.232)" fill="#2FDBBC"/>
<path d="M49.3688 141.962C47.874 135.283 21.2393 134.713 13.0675 148.048C4.89577 161.383 9.19043 181.966 22.8104 186.177C36.4303 190.388 52.7738 185.476 53.4547 179.159C53.9995 174.106 42.3497 174.718 36.2209 174.718C43.0307 174.016 54.6074 174.246 53.4547 168.631C52.3021 163.017 39.1541 164.654 33.0253 165.122C40.2891 163.953 54.6074 163.488 53.4547 156.7C52.3021 149.912 38.4908 152.493 31.454 153.663C39.1718 151.557 51.2025 150.154 49.3688 141.962Z" fill="#BE7FEF" stroke="black" stroke-width="2.72393" stroke-linecap="round" stroke-linejoin="round"/>
</svg>
