<svg width="143" height="185" viewBox="0 0 143 185" fill="none" xmlns="http://www.w3.org/2000/svg">
<g id="Illustration 2">
<g id="Group 12">
<path id="Vector 276" opacity="0.7" d="M79.396 57.0171V103.396" stroke="#A64CED" stroke-width="111.31" stroke-linecap="round"/>
<path id="Vector 280" d="M96.5562 48.6689C95.1648 54.2344 85.889 61.1913 78.9321 61.1913" stroke="black" stroke-width="1.85517" stroke-linecap="round" stroke-linejoin="round"/>
<path id="Vector 278" d="M112.537 79.7428C110.836 86.2359 105.58 97.2741 98.1592 89.4824C88.8833 79.7428 79.1437 65.3653 69.4041 64.4377C59.6645 63.5101 54.0991 66.7566 55.4904 70.467C56.4205 72.9475 60.6673 73.2169 64.7662 73.0768M70.3316 72.786C68.7943 72.8372 66.7984 73.0073 64.7662 73.0768M74.9696 79.279C73.1144 79.928 70.7954 79.9521 69.4041 79.928M64.7662 73.0768C57.8093 74.1773 58.7369 79.7428 69.4041 79.928M69.4041 79.928C62.911 81.1342 64.7662 85.7721 70.3316 86.7432M74.042 86.6997C72.5842 86.9569 71.3484 86.9447 70.3316 86.7432M70.3316 86.7432C66.9086 88.9895 67.8522 92.5127 72.6506 92.9406M76.3609 92.729C74.9421 92.9794 73.7036 93.0345 72.6506 92.9406M72.6506 92.9406C83.3178 115.919 108.363 125.194 126.45 107.57" stroke="black" stroke-width="1.85517" stroke-linecap="round"/>
<circle id="Ellipse 1020" cx="65.0187" cy="45.4225" r="2.31896" fill="black"/>
<circle id="Ellipse 1021" cx="84.4977" cy="41.712" r="2.31896" fill="black"/>
<path id="Vector 281" d="M77.541 157.196V221.199H38.5825L42.8355 217.478C44.8485 215.717 46.0032 213.172 46.0032 210.497V146.065" stroke="black" stroke-width="1.85517" stroke-linecap="round" stroke-linejoin="round"/>
<path id="Vector 282" d="M81.251 157.196V221.199H120.209L115.956 217.478C113.943 215.717 112.789 213.172 112.789 210.497V146.065" stroke="black" stroke-width="1.85517" stroke-linecap="round" stroke-linejoin="round"/>
<path id="Vector" d="M34.2774 48.9488C33.2434 54.5351 32.8149 60.2025 32.0255 65.8274" stroke="white" stroke-width="1.85517" stroke-miterlimit="1.5" stroke-linecap="round" stroke-linejoin="round"/>
<path id="Vector_2" d="M48.9227 43.1033C44.2241 50.949 40.3063 59.4363 36.8467 67.8979" stroke="white" stroke-width="1.85517" stroke-miterlimit="1.5" stroke-linecap="round" stroke-linejoin="round"/>
<path id="Vector_3" d="M57.3524 56.7173C51.9566 59.9051 45.7919 66.6604 41.1502 71.174" stroke="white" stroke-width="1.85517" stroke-miterlimit="1.5" stroke-linecap="round" stroke-linejoin="round"/>
<g id="Group 2">
<rect id="Rectangle 147" opacity="0.7" x="5.18945" y="75.1758" width="34.3206" height="64.0032" rx="9.27583" transform="rotate(-15 5.18945 75.1758)" fill="#2FDBBC"/>
<rect id="Rectangle 148" opacity="0.7" x="9.7334" y="77.7993" width="9.66336" height="14.3256" rx="4.83168" transform="rotate(-15 9.7334 77.7993)" fill="#2FDBBC"/>
</g>
<path id="Vector 279" d="M33.623 96.6847C32.605 92.1364 14.4651 91.748 8.89956 100.83C3.33408 109.912 6.25901 123.93 15.5351 126.798C24.8111 129.666 35.942 126.32 36.4058 122.018C36.7768 118.577 28.8426 118.994 24.6684 118.994C29.3064 118.516 37.1908 118.672 36.4058 114.849C35.6208 111.025 26.6662 112.14 22.492 112.459C27.4391 111.662 37.1908 111.346 36.4058 106.723C35.6208 102.099 26.2144 103.857 21.4219 104.654C26.6782 103.22 34.8719 102.264 33.623 96.6847Z" fill="#BE7FEF" stroke="black" stroke-width="1.85517" stroke-linecap="round" stroke-linejoin="round"/>
</g>
</g>
</svg>
