<svg width="318" height="362" viewBox="0 0 318 362" fill="none" xmlns="http://www.w3.org/2000/svg">
<path opacity="0.7" d="M282 375C276 303 177.5 265.846 89.7475 276.849C4.594 287.526 -22.0491 343.646 10.4557 352.618C31.5 358.427 66.138 320.367 59.07 265.846C52.0019 211.326 -31.591 206.027 -56.1852 230.838C-80.7795 255.649 -33.6539 292.837 -16.1676 258.382C2.91999 220.771 -3.65112 132.228 -64.3765 136.963C-72.7355 147.467 -80.8773 170.532 -46.5729 178.756C-3.69228 189.036 64.3876 105.838 47.8815 33.615C31.3753 -38.6079 -64.3765 -3.49998 -39.9801 67.507" stroke="#A64CED" stroke-width="70"/>
<rect opacity="0.7" x="14.9702" y="87.2216" width="169.189" height="339.449" rx="32.1245" transform="rotate(-17.1923 14.9702 87.2216)" fill="black"/>
<g clip-path="url(#clip0_1_328)">
<rect x="21.6675" y="90.7539" width="158.481" height="328.741" rx="26.7704" transform="rotate(-17.1923 21.6675 90.7539)" fill="white"/>
<g clip-path="url(#clip1_1_328)">
<rect x="53.4199" y="157.151" width="137.065" height="113.507" rx="21.4163" transform="rotate(-17.1923 53.4199 157.151)" fill="#F9F9F9"/>
<path opacity="0.7" d="M83.7822 240.792L104.242 234.461" stroke="#2FDBBC" stroke-width="128.498" stroke-linecap="round"/>
<circle cx="83.3752" cy="216.608" r="2.67704" transform="rotate(7.33967 83.3752 216.608)" fill="black"/>
<circle cx="106.225" cy="215.232" r="2.67704" transform="rotate(7.33967 106.225 215.232)" fill="black"/>
<path d="M96.7638 240.242C99.5685 241.418 105.313 239.734 101.368 234.23C110.063 231.539 101.235 224.743 96.0246 228.52" stroke="black" stroke-width="2.14163" stroke-linecap="round" stroke-linejoin="round"/>
<path d="M159.824 233.703C163.443 233.158 165.924 231.864 167.245 230.402M158.134 224.677C167.285 222.926 170.24 227.092 167.245 230.402M136.709 253.314C150.489 268.934 150.752 233.998 150.503 226.321C150.254 218.645 149.103 204.711 155.406 205.205C160.449 205.601 158.981 213.472 157.953 219.094C158.981 213.472 161.383 204.295 165.198 205.586C170.849 207.499 167.166 216.004 164.969 220.034M161.532 221.772C164.496 219.813 171.72 217.11 174.116 222.062C175.433 224.784 174.15 226.819 172.22 228.218M167.245 230.402C168.622 230.083 170.638 229.364 172.22 228.218M172.22 228.218C174.723 240.775 173.943 259.79 167.305 270.484C160.666 281.178 148.669 284.594 145.405 284.467" stroke="black" stroke-width="2.14163" stroke-linecap="round" stroke-linejoin="round"/>
<circle cx="160.996" cy="178.79" r="5.35409" transform="rotate(-17.1923 160.996 178.79)" stroke="black" stroke-width="2.14163"/>
<circle cx="194.268" cy="159.529" r="5.35409" transform="rotate(-17.1923 194.268 159.529)" stroke="black" stroke-width="2.14163"/>
<path d="M166.148 175.515L188.958 162.293M159.256 173.164L153.779 144.594" stroke="black" stroke-width="2.14163" stroke-linecap="round" stroke-linejoin="round"/>
<path d="M145.51 143.229L162.596 144.108" stroke="black" stroke-width="2.14163" stroke-linecap="round" stroke-linejoin="round"/>
</g>
<g clip-path="url(#clip2_1_328)">
<rect x="44.2411" y="127.485" width="25.6996" height="25.6996" rx="12.8498" transform="rotate(-17.1923 44.2411 127.485)" fill="#DAFAF4"/>
<rect opacity="0.7" x="48.0393" y="139.76" width="25.6996" height="19.2747" rx="9.63735" transform="rotate(-17.1923 48.0393 139.76)" fill="#2FDBBC"/>
<circle cx="59.8148" cy="143.403" r="0.535409" transform="rotate(-17.1923 59.8148 143.403)" fill="black"/>
<circle cx="64.9299" cy="141.82" r="0.535409" transform="rotate(-17.1923 64.9299 141.82)" fill="black"/>
</g>
<g clip-path="url(#clip3_1_328)">
<rect x="104.378" y="321.849" width="25.6996" height="25.6996" rx="12.8498" transform="rotate(-17.1923 104.378 321.849)" fill="#FFF5EB"/>
<rect opacity="0.7" x="108.176" y="334.125" width="25.6996" height="19.2747" rx="9.63735" transform="rotate(-17.1923 108.176 334.125)" fill="#FDC280"/>
<circle cx="119.952" cy="337.767" r="0.535409" transform="rotate(-17.1923 119.952 337.767)" fill="black"/>
<circle cx="125.067" cy="336.185" r="0.535409" transform="rotate(-17.1923 125.067 336.185)" fill="black"/>
<circle cx="119.952" cy="337.767" r="1.39206" transform="rotate(-17.1923 119.952 337.767)" stroke="black" stroke-width="0.428327"/>
<circle cx="125.067" cy="336.185" r="1.39206" transform="rotate(-17.1923 125.067 336.185)" stroke="black" stroke-width="0.428327"/>
<path d="M121.486 337.293L123.532 336.66" stroke="black" stroke-width="0.428327" stroke-linecap="round" stroke-linejoin="round"/>
</g>
<path d="M80.6911 133.928L80.3797 132.921L82.9576 132.124C83.4486 131.972 83.7889 131.709 83.9786 131.337C84.1657 130.956 84.1959 130.561 84.0693 130.152C83.9832 129.874 83.8446 129.643 83.6535 129.46C83.4598 129.269 83.2241 129.145 82.9462 129.087C82.6766 129.027 82.3863 129.045 82.0753 129.142L79.4606 129.951L79.1491 128.944L81.592 128.188C82.0012 128.061 82.2915 127.855 82.463 127.569C82.6401 127.272 82.6654 126.919 82.5388 126.51C82.4122 126.101 82.1891 125.829 81.8696 125.694C81.5475 125.552 81.1778 125.545 80.7604 125.675L78.3667 126.415L78.0552 125.409L80.4736 124.66C81.03 124.488 81.5241 124.447 81.9557 124.538C82.3929 124.618 82.7562 124.792 83.0458 125.062C83.3434 125.328 83.5531 125.658 83.6746 126.051C83.8164 126.509 83.8136 126.949 83.6663 127.371C83.5271 127.791 83.2465 128.174 82.8244 128.52L82.8087 128.121C83.4178 128.148 83.9357 128.315 84.3626 128.622C84.7951 128.919 85.095 129.337 85.2621 129.877C85.4013 130.327 85.4162 130.767 85.3066 131.195C85.1971 131.624 84.9678 132.013 84.6188 132.363C84.2755 132.702 83.8051 132.964 83.2077 133.149L80.6911 133.928ZM79.9178 134.167L77.2819 125.648L78.4358 125.291L81.0717 133.81L79.9178 134.167ZM89.7523 131.259C89.2777 131.406 88.8151 131.432 88.3646 131.338C87.9198 131.234 87.5315 131.022 87.1997 130.703C86.8679 130.385 86.6235 129.972 86.4665 129.464L85.4183 126.076L86.5231 125.734L87.5562 129.073C87.6549 129.392 87.7942 129.654 87.974 129.859C88.1595 130.052 88.3776 130.178 88.6284 130.235C88.8791 130.291 89.1477 130.276 89.4342 130.187C89.8679 130.053 90.1657 129.813 90.3277 129.467C90.4871 129.112 90.4921 128.694 90.3427 128.211L89.3096 124.872L90.4145 124.53L91.4627 127.918C91.6197 128.426 91.6513 128.905 91.5576 129.355C91.4638 129.806 91.2629 130.2 90.9548 130.537C90.6523 130.864 90.2515 131.104 89.7523 131.259ZM96.8062 129.076C96.3643 129.213 95.9354 129.247 95.5196 129.178C95.1095 129.099 94.7474 128.929 94.4333 128.667C94.1193 128.406 93.8854 128.07 93.7317 127.66L93.1886 125.905C93.0815 125.472 93.0849 125.063 93.1989 124.678C93.3186 124.282 93.5266 123.94 93.8228 123.651C94.1246 123.351 94.4924 123.134 94.9261 123C95.4581 122.835 95.9786 122.822 96.4877 122.961C97.005 123.096 97.4573 123.356 97.8446 123.738C98.232 124.12 98.5142 124.598 98.6915 125.171C98.8687 125.743 98.9055 126.297 98.8018 126.831C98.6981 127.366 98.4711 127.835 98.1209 128.239C97.7764 128.633 97.3382 128.912 96.8062 129.076ZM96.2992 128.09C96.6675 127.976 96.9642 127.79 97.1893 127.532C97.4143 127.274 97.5631 126.972 97.6356 126.627C97.7056 126.274 97.6799 125.901 97.5583 125.508C97.4393 125.123 97.2511 124.805 96.9938 124.553C96.7364 124.3 96.4433 124.136 96.1144 124.058C95.783 123.972 95.4372 123.985 95.0771 124.096C94.7088 124.21 94.4122 124.396 94.1871 124.654C93.9595 124.904 93.8148 125.204 93.753 125.555C93.6912 125.906 93.7211 126.278 93.8426 126.671C93.9616 127.056 94.1416 127.376 94.3826 127.634C94.6292 127.88 94.9183 128.046 95.2497 128.132C95.5893 128.215 95.9392 128.201 96.2992 128.09ZM93.6993 129.903L90.9875 121.138L92.0923 120.796L93.4406 125.154L93.6687 126.631L94.318 127.99L94.8041 129.561L93.6993 129.903ZM100.856 127.689L99.0523 121.858L100.157 121.516L101.961 127.347L100.856 127.689ZM99.2439 120.521C99.0393 120.584 98.8513 120.57 98.6798 120.48C98.5058 120.381 98.3872 120.23 98.3239 120.025C98.2631 119.829 98.2779 119.645 98.3684 119.473C98.4563 119.294 98.6025 119.172 98.8071 119.109C99.0117 119.046 99.201 119.063 99.375 119.162C99.5464 119.252 99.6625 119.396 99.7233 119.592C99.7866 119.797 99.7743 119.989 99.6864 120.168C99.596 120.34 99.4485 120.457 99.2439 120.521Z" fill="#B9B9B9"/>
<path d="M41.7791 108.978L39.1204 100.385L40.5321 99.9479L43.1908 108.541L41.7791 108.978ZM41.6095 104.995L41.2107 103.706L45.5808 102.354L45.9796 103.643L41.6095 104.995ZM40.489 101.374L40.0902 100.085L44.669 98.6679L45.0678 99.9569L40.489 101.374ZM51.0957 106.23C50.5065 106.412 49.934 106.446 49.3783 106.33C48.8283 106.205 48.342 105.952 47.9194 105.571C47.505 105.188 47.2079 104.706 47.0281 104.125C46.8484 103.544 46.8226 102.983 46.9509 102.441C47.0766 101.891 47.3268 101.41 47.7016 100.998C48.0845 100.584 48.5583 100.289 49.123 100.115C49.6713 99.9449 50.1934 99.9223 50.6892 100.047C51.1933 100.169 51.6323 100.414 52.0064 100.783C52.3886 101.149 52.6671 101.614 52.8418 102.179C52.8722 102.277 52.8957 102.382 52.9122 102.493C52.9344 102.594 52.9523 102.709 52.9657 102.84L48.1291 104.336L47.7872 103.231L51.9241 101.951L51.5576 102.549C51.4298 102.194 51.2665 101.913 51.0678 101.705C50.8691 101.498 50.6349 101.364 50.3653 101.304C50.1038 101.241 49.8094 101.261 49.482 101.362C49.1383 101.468 48.8624 101.634 48.6543 101.86C48.4461 102.086 48.3143 102.355 48.2587 102.669C48.2006 102.973 48.2286 103.31 48.3425 103.678C48.4565 104.047 48.6301 104.347 48.8635 104.58C49.0969 104.812 49.3727 104.965 49.6909 105.037C50.0065 105.1 50.3403 105.078 50.6922 104.969C50.995 104.875 51.2568 104.736 51.4776 104.551C51.7065 104.364 51.8794 104.14 51.9961 103.88L53.1251 104.485C52.9425 104.909 52.6732 105.271 52.3171 105.569C51.9611 105.868 51.554 106.088 51.0957 106.23ZM57.6531 104.201C57.0639 104.383 56.4914 104.417 55.9357 104.302C55.3857 104.176 54.8994 103.923 54.4768 103.542C54.0624 103.16 53.7653 102.678 53.5855 102.096C53.4058 101.515 53.38 100.954 53.5083 100.412C53.634 99.8621 53.8842 99.3812 54.259 98.9693C54.6419 98.5549 55.1157 98.2604 55.6804 98.0856C56.2287 97.916 56.7508 97.8934 57.2466 98.018C57.7507 98.14 58.1897 98.3853 58.5638 98.7538C58.9461 99.1197 59.2245 99.5851 59.3992 100.15C59.4296 100.248 59.4531 100.353 59.4696 100.464C59.4918 100.565 59.5097 100.681 59.5231 100.811L54.6865 102.307L54.3447 101.203L58.4816 99.9226L58.115 100.52C57.9872 100.165 57.824 99.8839 57.6252 99.6764C57.4265 99.4688 57.1923 99.3351 56.9227 99.275C56.6612 99.2124 56.3668 99.2318 56.0394 99.3331C55.6957 99.4394 55.4198 99.6055 55.2117 99.8313C55.0036 100.057 54.8717 100.327 54.8161 100.64C54.758 100.945 54.786 101.281 54.8999 101.649C55.0139 102.018 55.1875 102.318 55.4209 102.551C55.6543 102.784 55.9301 102.936 56.2483 103.008C56.5639 103.072 56.8977 103.049 57.2496 102.94C57.5524 102.846 57.8142 102.707 58.035 102.522C58.2639 102.335 58.4368 102.111 58.5535 101.851L59.6825 102.456C59.4999 102.881 59.2306 103.242 58.8745 103.54C58.5185 103.839 58.1114 104.059 57.6531 104.201ZM63.9404 102.255C63.4085 102.42 62.8839 102.434 62.3666 102.298C61.8574 102.16 61.4051 101.901 61.0096 101.521C60.6198 101.131 60.3363 100.649 60.159 100.076C59.9792 99.495 59.9412 98.9374 60.0449 98.4031C60.1543 97.8582 60.38 97.3848 60.722 96.9831C61.0696 96.5706 61.5094 96.2821 62.0414 96.1175C62.4915 95.9783 62.9188 95.9537 63.3233 96.0437C63.7334 96.1231 64.0927 96.2989 64.4011 96.5711C64.7095 96.8433 64.9295 97.1922 65.0612 97.6178L65.5853 99.3118C65.717 99.7374 65.7325 100.15 65.6317 100.548C65.5391 100.945 65.3472 101.296 65.0561 101.601C64.7624 101.898 64.3905 102.116 63.9404 102.255ZM63.7664 100.91C64.1019 100.807 64.3697 100.643 64.5696 100.42C64.7752 100.186 64.9058 99.9122 64.9613 99.599C65.0169 99.2859 64.9902 98.9534 64.8813 98.6015C64.7725 98.2496 64.6067 97.9602 64.384 97.7331C64.1613 97.5061 63.9003 97.3582 63.6011 97.2894C63.3074 97.2099 62.9929 97.222 62.6573 97.3258C62.33 97.4271 62.0635 97.5947 61.8579 97.8287C61.658 98.052 61.5261 98.3215 61.4624 98.6371C61.4068 98.9502 61.4335 99.2827 61.5424 99.6346C61.6512 99.9865 61.817 100.276 62.0397 100.503C62.2706 100.727 62.5328 100.879 62.8264 100.959C63.1257 101.028 63.439 101.012 63.7664 100.91ZM67.0573 101.156L65.707 101.574L65.217 99.9907L65.0059 98.4823L64.332 97.1305L62.9723 92.7358L64.3226 92.318L67.0573 101.156Z" fill="#E4E4E4"/>
<g clip-path="url(#clip4_1_328)">
<rect x="113.557" y="351.515" width="137.065" height="113.507" rx="21.4163" transform="rotate(-17.1923 113.557 351.515)" fill="#F9F9F9"/>
<path opacity="0.7" d="M286.994 350.536L221.524 370.793" stroke="#FFAA4C" stroke-width="103.147" stroke-linecap="round"/>
<path d="M220.275 356.736C218.632 359.316 212.765 361.269 209.246 360.095" stroke="black" stroke-width="2.14163" stroke-linecap="round" stroke-linejoin="round"/>
<circle cx="194.137" cy="352.925" r="2.67704" transform="rotate(-17.1923 194.137 352.925)" fill="black"/>
<circle cx="216.643" cy="345.961" r="2.67704" transform="rotate(-17.1923 216.643 345.961)" fill="black"/>
<circle cx="196.537" cy="351.622" r="7.49572" transform="rotate(-17.1923 196.537 351.622)" stroke="black" stroke-width="2.14163"/>
<circle cx="219.042" cy="344.659" r="7.49572" transform="rotate(-17.1923 219.042 344.659)" stroke="black" stroke-width="2.14163"/>
<path d="M203.856 349.918L212.039 347.386" stroke="black" stroke-width="2.14163" stroke-linecap="round" stroke-linejoin="round"/>
<path d="M135.016 375.564L133.688 375.262C131.382 374.738 129.087 376.183 128.562 378.49L122.893 403.426C122.369 405.733 123.814 408.028 126.12 408.552L150.795 414.162C153.102 414.686 155.397 413.241 155.921 410.935L161.59 385.998C162.114 383.691 160.67 381.396 158.363 380.872L152.054 379.438M135.016 375.564C135.505 370.989 137.688 362.113 142.512 363.209C147.335 364.305 146.514 373.492 145.501 377.948M135.016 375.564L140.259 376.756M145.501 377.948L140.259 376.756M145.501 377.948L152.054 379.438M140.259 376.756C140.787 372.006 143.324 362.787 149.244 363.912C155.163 365.038 153.584 374.731 152.054 379.438" stroke="black" stroke-width="2.14163" stroke-linecap="round" stroke-linejoin="round"/>
</g>
<path d="M140.828 328.292L140.517 327.286L143.095 326.488C143.586 326.336 143.926 326.074 144.116 325.702C144.303 325.321 144.333 324.926 144.206 324.517C144.12 324.238 143.982 324.008 143.791 323.825C143.597 323.634 143.361 323.509 143.083 323.452C142.814 323.392 142.523 323.41 142.212 323.506L139.598 324.315L139.286 323.309L141.729 322.553C142.138 322.426 142.429 322.22 142.6 321.933C142.777 321.637 142.803 321.284 142.676 320.874C142.549 320.465 142.326 320.193 142.007 320.059C141.685 319.917 141.315 319.91 140.898 320.039L138.504 320.78L138.192 319.773L140.611 319.025C141.167 318.853 141.661 318.812 142.093 318.903C142.53 318.983 142.893 319.157 143.183 319.426C143.481 319.693 143.69 320.022 143.812 320.415C143.954 320.874 143.951 321.314 143.803 321.736C143.664 322.156 143.384 322.538 142.962 322.884L142.946 322.486C143.555 322.512 144.073 322.679 144.5 322.987C144.932 323.283 145.232 323.702 145.399 324.242C145.538 324.692 145.553 325.131 145.444 325.56C145.334 325.988 145.105 326.377 144.756 326.728C144.413 327.067 143.942 327.329 143.345 327.514L140.828 328.292ZM140.055 328.532L137.419 320.012L138.573 319.655L141.209 328.175L140.055 328.532ZM149.889 325.623C149.415 325.77 148.952 325.797 148.502 325.703C148.057 325.599 147.669 325.387 147.337 325.068C147.005 324.749 146.761 324.336 146.604 323.829L145.555 320.441L146.66 320.099L147.693 323.438C147.792 323.757 147.931 324.019 148.111 324.223C148.297 324.417 148.515 324.542 148.766 324.599C149.016 324.656 149.285 324.64 149.571 324.552C150.005 324.417 150.303 324.177 150.465 323.831C150.624 323.477 150.629 323.059 150.48 322.576L149.447 319.237L150.552 318.895L151.6 322.283C151.757 322.79 151.788 323.269 151.695 323.72C151.601 324.17 151.4 324.564 151.092 324.902C150.789 325.228 150.389 325.469 149.889 325.623ZM156.943 323.441C156.501 323.578 156.073 323.612 155.657 323.543C155.247 323.464 154.885 323.293 154.57 323.032C154.256 322.77 154.023 322.435 153.869 322.025L153.326 320.269C153.219 319.836 153.222 319.427 153.336 319.042C153.456 318.646 153.664 318.304 153.96 318.015C154.262 317.716 154.63 317.499 155.063 317.364C155.595 317.2 156.116 317.187 156.625 317.325C157.142 317.461 157.594 317.72 157.982 318.102C158.369 318.485 158.651 318.962 158.829 319.535C159.006 320.108 159.043 320.662 158.939 321.196C158.835 321.73 158.608 322.199 158.258 322.604C157.914 322.997 157.475 323.276 156.943 323.441ZM156.436 322.454C156.805 322.341 157.101 322.155 157.326 321.897C157.551 321.639 157.7 321.337 157.773 320.992C157.843 320.638 157.817 320.265 157.695 319.872C157.576 319.488 157.388 319.169 157.131 318.917C156.874 318.665 156.58 318.5 156.252 318.423C155.92 318.337 155.574 318.35 155.214 318.461C154.846 318.575 154.549 318.761 154.324 319.019C154.097 319.269 153.952 319.569 153.89 319.92C153.828 320.271 153.858 320.643 153.98 321.036C154.099 321.42 154.279 321.741 154.52 321.998C154.766 322.245 155.055 322.411 155.387 322.497C155.726 322.58 156.076 322.566 156.436 322.454ZM153.836 324.268L151.125 315.503L152.229 315.161L153.578 319.519L153.806 320.995L154.455 322.355L154.941 323.926L153.836 324.268ZM163.364 321.454C162.889 321.601 162.427 321.628 161.976 321.534C161.531 321.43 161.143 321.218 160.811 320.899C160.48 320.58 160.235 320.167 160.078 319.66L159.03 316.272L160.135 315.93L161.168 319.269C161.267 319.588 161.406 319.85 161.586 320.054C161.771 320.248 161.989 320.373 162.24 320.43C162.491 320.487 162.759 320.471 163.046 320.383C163.479 320.248 163.777 320.008 163.939 319.662C164.099 319.308 164.104 318.89 163.954 318.407L162.921 315.068L164.026 314.726L165.074 318.114C165.231 318.621 165.263 319.1 165.169 319.551C165.075 320.001 164.874 320.395 164.566 320.733C164.264 321.059 163.863 321.3 163.364 321.454Z" fill="#B9B9B9"/>
<rect opacity="0.7" x="81.0226" y="86.9609" width="42.8327" height="10.7082" rx="5.35409" transform="rotate(-17.1923 81.0226 86.9609)" fill="black"/>
<path d="M93.4017 282.808L90.7658 274.289L91.9198 273.932L94.5557 282.451L93.4017 282.808ZM102.03 280.273C101.589 280.41 101.16 280.444 100.744 280.375C100.334 280.296 99.9717 280.125 99.6576 279.864C99.3435 279.602 99.1097 279.267 98.956 278.857L98.4128 277.102C98.3057 276.668 98.3092 276.259 98.4232 275.874C98.5429 275.479 98.7508 275.136 99.047 274.847C99.3489 274.548 99.7167 274.331 100.15 274.197C100.682 274.032 101.203 274.019 101.712 274.157C102.229 274.293 102.682 274.552 103.069 274.935C103.456 275.317 103.738 275.795 103.916 276.367C104.093 276.94 104.13 277.494 104.026 278.028C103.922 278.562 103.695 279.032 103.345 279.436C103.001 279.829 102.562 280.109 102.03 280.273ZM101.524 279.287C101.892 279.173 102.188 278.987 102.414 278.729C102.639 278.471 102.787 278.169 102.86 277.824C102.93 277.471 102.904 277.097 102.783 276.705C102.664 276.32 102.475 276.002 102.218 275.749C101.961 275.497 101.668 275.332 101.339 275.255C101.007 275.169 100.661 275.182 100.301 275.293C99.9331 275.407 99.6364 275.593 99.4114 275.851C99.1838 276.101 99.0391 276.401 98.9773 276.752C98.9154 277.103 98.9453 277.475 99.0669 277.868C99.1859 278.252 99.3659 278.573 99.6069 278.831C99.8535 279.077 100.143 279.243 100.474 279.329C100.814 279.412 101.163 279.398 101.524 279.287ZM98.9236 281.1L96.2117 272.335L97.3165 271.993L98.6649 276.351L98.893 277.827L99.5422 279.187L100.028 280.758L98.9236 281.1ZM108.77 278.188C108.197 278.365 107.64 278.39 107.098 278.261C106.556 278.133 106.079 277.882 105.668 277.507C105.253 277.124 104.957 276.646 104.78 276.073C104.605 275.508 104.583 274.959 104.714 274.426C104.842 273.884 105.094 273.407 105.469 272.995C105.843 272.583 106.317 272.289 106.89 272.111C107.455 271.937 108.008 271.913 108.55 272.042C109.097 272.159 109.577 272.405 109.989 272.78C110.401 273.155 110.694 273.625 110.869 274.189C111.046 274.762 111.072 275.324 110.946 275.874C110.818 276.415 110.562 276.894 110.179 277.308C109.805 277.72 109.335 278.013 108.77 278.188ZM108.44 277.12C108.808 277.006 109.109 276.819 109.342 276.558C109.575 276.298 109.728 275.995 109.801 275.65C109.871 275.296 109.846 274.927 109.727 274.542C109.611 274.166 109.421 273.857 109.158 273.616C108.903 273.372 108.607 273.212 108.27 273.137C107.939 273.051 107.589 273.065 107.221 273.179C106.852 273.293 106.552 273.481 106.318 273.741C106.082 273.993 105.928 274.292 105.856 274.637C105.783 274.983 105.805 275.343 105.922 275.72C106.041 276.105 106.229 276.423 106.486 276.675C106.741 276.919 107.038 277.083 107.378 277.166C107.718 277.249 108.071 277.234 108.44 277.12ZM115.404 276.135C114.929 276.282 114.467 276.309 114.016 276.215C113.572 276.11 113.183 275.899 112.851 275.58C112.52 275.261 112.275 274.848 112.118 274.341L111.07 270.953L112.175 270.611L113.208 273.95C113.307 274.269 113.446 274.531 113.626 274.735C113.811 274.929 114.029 275.054 114.28 275.111C114.531 275.168 114.799 275.152 115.086 275.064C115.52 274.929 115.817 274.689 115.979 274.343C116.139 273.989 116.144 273.57 115.994 273.088L114.961 269.749L116.066 269.407L117.114 272.795C117.271 273.302 117.303 273.781 117.209 274.232C117.116 274.682 116.915 275.076 116.607 275.414C116.304 275.74 115.903 275.981 115.404 276.135ZM122.563 276.597C121.966 276.782 121.4 276.836 120.865 276.759C120.338 276.68 119.874 276.483 119.471 276.168L119.959 275.224C120.29 275.453 120.643 275.595 121.019 275.649C121.397 275.711 121.811 275.673 122.261 275.534C122.858 275.349 123.28 275.044 123.525 274.618C123.78 274.198 123.826 273.722 123.661 273.19L123.213 271.742L123.003 270.368L122.404 269.127L121.929 267.593L123.034 267.251L124.766 272.849C124.938 273.405 124.958 273.933 124.825 274.431C124.701 274.927 124.442 275.366 124.049 275.747C123.664 276.126 123.169 276.41 122.563 276.597ZM121.739 273.933C121.207 274.098 120.689 274.119 120.185 273.997C119.689 273.872 119.25 273.627 118.868 273.261C118.483 272.887 118.205 272.422 118.032 271.865C117.86 271.309 117.83 270.776 117.941 270.266C118.05 269.748 118.274 269.298 118.613 268.915C118.957 268.521 119.395 268.242 119.927 268.078C120.386 267.936 120.818 267.901 121.226 267.972C121.634 268.043 121.99 268.21 122.296 268.475C122.608 268.728 122.839 269.069 122.989 269.498L123.468 271.044C123.575 271.477 123.573 271.891 123.461 272.284C123.356 272.666 123.155 273.002 122.858 273.291C122.562 273.58 122.189 273.794 121.739 273.933ZM121.637 272.821C121.997 272.71 122.288 272.535 122.51 272.296C122.74 272.054 122.886 271.771 122.947 271.448C123.006 271.116 122.977 270.761 122.86 270.385C122.744 270.008 122.565 269.705 122.323 269.475C122.087 269.234 121.81 269.078 121.492 269.006C121.172 268.926 120.827 268.943 120.459 269.057C120.091 269.17 119.793 269.352 119.565 269.602C119.335 269.844 119.182 270.133 119.107 270.47C119.038 270.796 119.06 271.144 119.174 271.512C119.288 271.88 119.467 272.184 119.711 272.422C119.963 272.658 120.254 272.814 120.583 272.892C120.917 272.959 121.269 272.935 121.637 272.821ZM130.585 271.304L129.532 267.904C129.396 267.462 129.144 267.14 128.777 266.94C128.41 266.74 128.006 266.708 127.564 266.845C127.269 266.936 127.028 267.082 126.839 267.284C126.65 267.486 126.526 267.722 126.466 267.991C126.406 268.261 126.421 268.543 126.513 268.838L125.979 268.721C125.842 268.279 125.819 267.855 125.909 267.451C125.999 267.047 126.189 266.692 126.48 266.386C126.769 266.073 127.134 265.848 127.576 265.711C128.018 265.574 128.437 265.552 128.834 265.645C129.238 265.735 129.593 265.925 129.898 266.217C130.204 266.508 130.427 266.882 130.569 267.341L131.689 270.962L130.585 271.304ZM126.46 272.58L123.748 263.815L124.853 263.473L127.565 272.238L126.46 272.58ZM134.009 270.244L131.449 261.97L132.554 261.629L135.114 269.902L134.009 270.244ZM131.08 265.864L130.769 264.858L134.746 263.627L135.058 264.634L131.08 265.864ZM140.186 268.333L138.382 262.502L139.487 262.16L141.291 267.991L140.186 268.333ZM144.127 267.114L143.037 263.591C142.902 263.157 142.662 262.859 142.316 262.697C141.976 262.525 141.605 262.5 141.204 262.624C140.934 262.708 140.71 262.84 140.533 263.02C140.356 263.201 140.233 263.413 140.166 263.659C140.098 263.904 140.108 264.169 140.197 264.456L139.674 264.375C139.538 263.934 139.513 263.52 139.6 263.134C139.695 262.746 139.882 262.41 140.162 262.126C140.44 261.834 140.787 261.624 141.204 261.494C141.613 261.368 142.01 261.344 142.393 261.423C142.784 261.499 143.124 261.672 143.414 261.941C143.711 262.207 143.93 262.566 144.069 263.016L145.231 266.772L144.127 267.114ZM148.067 265.895L146.977 262.372C146.843 261.938 146.603 261.64 146.257 261.478C145.916 261.305 145.55 261.28 145.157 261.401C144.887 261.485 144.659 261.618 144.473 261.801C144.296 261.982 144.174 262.194 144.106 262.439C144.038 262.685 144.049 262.95 144.138 263.237L143.443 263.209C143.328 262.752 143.328 262.33 143.442 261.945C143.562 261.55 143.766 261.209 144.054 260.922C144.339 260.628 144.686 260.417 145.096 260.29C145.521 260.159 145.93 260.131 146.321 260.207C146.712 260.284 147.057 260.455 147.354 260.722C147.66 260.986 147.884 261.347 148.026 261.805L149.184 265.549L148.067 265.895ZM152.618 264.541L148.27 259.443L149.497 259.063L152.8 263.085L152.407 263.207L152.959 257.992L154.187 257.612L153.281 264.335L152.618 264.541ZM151.689 267.451L152.317 263.396L153.281 264.335L152.916 267.071L151.689 267.451ZM158.669 262.749C158.342 262.85 158.018 262.906 157.698 262.915C157.384 262.913 157.08 262.873 156.786 262.793C156.49 262.706 156.218 262.579 155.969 262.414L156.461 261.482C156.755 261.678 157.061 261.798 157.38 261.843C157.696 261.88 158.026 261.845 158.37 261.739C158.714 261.632 158.962 261.493 159.115 261.32C159.265 261.139 159.307 260.942 159.241 260.729C159.175 260.516 159.047 260.377 158.856 260.31C158.671 260.233 158.448 260.194 158.188 260.194C157.925 260.186 157.648 260.187 157.355 260.196C157.067 260.196 156.786 260.171 156.511 260.121C156.236 260.072 155.987 259.965 155.766 259.8C155.553 259.633 155.392 259.373 155.283 259.022C155.174 258.67 155.166 258.34 155.26 258.033C155.35 257.718 155.526 257.444 155.786 257.212C156.053 256.976 156.404 256.792 156.838 256.657C157.296 256.516 157.727 256.472 158.129 256.527C158.537 256.571 158.906 256.717 159.233 256.965L158.742 257.898C158.512 257.735 158.257 257.635 157.976 257.596C157.703 257.555 157.415 257.582 157.113 257.675C156.793 257.774 156.566 257.907 156.429 258.075C156.299 258.232 156.264 258.409 156.324 258.605C156.385 258.802 156.506 258.93 156.686 258.991C156.866 259.052 157.086 259.082 157.346 259.083C157.615 259.08 157.892 259.08 158.18 259.08C158.464 259.073 158.745 259.098 159.023 259.156C159.301 259.213 159.548 259.33 159.764 259.505C159.987 259.678 160.155 259.944 160.267 260.304C160.436 260.853 160.374 261.347 160.08 261.788C159.794 262.226 159.324 262.546 158.669 262.749ZM164.755 260.866C164.174 261.046 163.609 261.077 163.062 260.959C162.512 260.834 162.031 260.583 161.619 260.209C161.207 259.834 160.911 259.356 160.732 258.775C160.554 258.202 160.526 257.646 160.646 257.107C160.774 256.565 161.023 256.093 161.392 255.692C161.767 255.28 162.236 254.987 162.801 254.812C163.341 254.645 163.854 254.621 164.339 254.74C164.832 254.856 165.261 255.096 165.624 255.459C165.996 255.819 166.266 256.273 166.436 256.822C166.461 256.904 166.485 256.995 166.507 257.096C166.527 257.188 166.543 257.3 166.557 257.43L161.634 258.953L161.349 258.032L165.683 256.692L165.388 257.173C165.266 256.78 165.094 256.47 164.871 256.243C164.646 256.008 164.384 255.856 164.085 255.787C163.783 255.71 163.452 255.727 163.092 255.839C162.715 255.955 162.409 256.14 162.173 256.392C161.938 256.644 161.788 256.942 161.723 257.285C161.659 257.627 161.689 257.999 161.813 258.4C161.939 258.809 162.133 259.144 162.393 259.404C162.65 259.657 162.957 259.822 163.313 259.9C163.666 259.97 164.039 259.944 164.432 259.823C164.759 259.721 165.04 259.572 165.275 259.373C165.518 259.173 165.702 258.927 165.827 258.638L166.763 259.142C166.586 259.555 166.32 259.911 165.964 260.209C165.616 260.505 165.213 260.724 164.755 260.866ZM168.598 259.543L165.886 250.778L166.99 250.436L169.702 259.201L168.598 259.543ZM172.154 258.442L170.08 251.74C169.946 251.306 169.923 250.9 170.013 250.523C170.1 250.137 170.278 249.8 170.547 249.51C170.824 249.218 171.184 249.004 171.626 248.867C171.961 248.763 172.269 248.731 172.55 248.769C172.831 248.808 173.108 248.906 173.381 249.064L172.877 250C172.735 249.918 172.59 249.869 172.441 249.852C172.29 249.827 172.121 249.844 171.932 249.902C171.58 250.011 171.338 250.198 171.205 250.464C171.08 250.726 171.073 251.038 171.185 251.398L173.258 258.1L172.154 258.442ZM169.225 254.062L168.913 253.056L173.308 251.696L173.619 252.703L169.225 254.062ZM100.452 297.51C99.9203 297.674 99.397 297.693 98.8822 297.565C98.3649 297.429 97.9085 297.171 97.513 296.792C97.1257 296.409 96.8434 295.932 96.6662 295.359C96.4889 294.786 96.4522 294.232 96.5559 293.698C96.6678 293.161 96.8947 292.692 97.2367 292.29C97.5869 291.886 98.0321 291.6 98.5722 291.433C99.0141 291.297 99.436 291.269 99.838 291.351C100.246 291.422 100.606 291.589 100.921 291.85C101.232 292.103 101.466 292.439 101.622 292.857L102.165 294.612C102.27 295.037 102.266 295.446 102.155 295.84C102.052 296.23 101.853 296.574 101.559 296.871C101.271 297.158 100.902 297.371 100.452 297.51ZM100.314 296.409C100.862 296.24 101.247 295.919 101.468 295.447C101.687 294.966 101.707 294.436 101.527 293.855C101.403 293.454 101.218 293.13 100.971 292.884C100.73 292.626 100.445 292.459 100.116 292.381C99.785 292.296 99.4352 292.31 99.0669 292.424C98.6986 292.538 98.3978 292.725 98.1646 292.985C97.9395 293.243 97.792 293.549 97.722 293.902C97.6577 294.245 97.685 294.609 97.804 294.993C97.9255 295.386 98.1109 295.71 98.3601 295.965C98.6149 296.209 98.9121 296.372 99.2517 296.455C99.5913 296.539 99.9453 296.523 100.314 296.409ZM102.354 296.787L101.868 295.216L101.636 293.727L100.99 292.38L100.55 290.956L101.667 290.61L103.471 296.441L102.354 296.787ZM109.204 294.667L108.152 291.267C108.015 290.825 107.763 290.504 107.397 290.304C107.03 290.103 106.625 290.072 106.183 290.208C105.889 290.299 105.647 290.446 105.458 290.648C105.27 290.85 105.146 291.085 105.085 291.355C105.025 291.625 105.041 291.907 105.132 292.201L104.598 292.084C104.461 291.642 104.438 291.219 104.528 290.815C104.618 290.41 104.809 290.055 105.1 289.75C105.389 289.436 105.754 289.211 106.196 289.075C106.638 288.938 107.061 288.928 107.464 289.045C107.877 289.16 108.237 289.367 108.544 289.666C108.85 289.957 109.064 290.303 109.188 290.704L110.309 294.326L109.204 294.667ZM105.079 295.944L103.275 290.113L104.38 289.771L106.184 295.602L105.079 295.944ZM117.097 292.36C116.516 292.54 115.951 292.571 115.404 292.453C114.854 292.328 114.373 292.077 113.961 291.703C113.549 291.328 113.253 290.85 113.074 290.269C112.896 289.696 112.868 289.14 112.988 288.601C113.116 288.059 113.365 287.587 113.734 287.186C114.109 286.774 114.578 286.481 115.143 286.306C115.683 286.139 116.196 286.115 116.681 286.234C117.174 286.35 117.603 286.59 117.966 286.953C118.337 287.313 118.608 287.767 118.778 288.316C118.803 288.398 118.827 288.489 118.849 288.59C118.869 288.682 118.885 288.794 118.899 288.924L113.976 290.447L113.691 289.526L118.025 288.186L117.73 288.667C117.608 288.274 117.436 287.964 117.213 287.737C116.988 287.502 116.726 287.35 116.427 287.281C116.125 287.204 115.794 287.221 115.434 287.333C115.057 287.449 114.751 287.634 114.515 287.886C114.28 288.138 114.129 288.436 114.065 288.778C114.001 289.121 114.031 289.493 114.155 289.894C114.281 290.303 114.475 290.638 114.734 290.898C114.992 291.15 115.298 291.316 115.654 291.394C116.008 291.464 116.381 291.438 116.774 291.316C117.101 291.215 117.382 291.066 117.617 290.867C117.86 290.667 118.044 290.421 118.169 290.131L119.105 290.635C118.928 291.049 118.662 291.405 118.306 291.703C117.958 291.999 117.555 292.218 117.097 292.36ZM120.939 291.036L118.228 282.272L119.332 281.93L122.044 290.695L120.939 291.036ZM126.399 289.482C125.818 289.661 125.254 289.693 124.707 289.575C124.156 289.449 123.676 289.199 123.264 288.824C122.852 288.45 122.556 287.972 122.376 287.391C122.199 286.818 122.17 286.262 122.29 285.722C122.419 285.18 122.667 284.709 123.037 284.308C123.411 283.896 123.881 283.603 124.446 283.428C124.986 283.261 125.498 283.237 125.984 283.356C126.477 283.472 126.905 283.712 127.269 284.075C127.64 284.435 127.911 284.889 128.08 285.437C128.106 285.519 128.129 285.611 128.152 285.711C128.171 285.804 128.188 285.915 128.201 286.046L123.279 287.569L122.994 286.648L127.327 285.307L127.032 285.789C126.911 285.396 126.739 285.086 126.516 284.859C126.291 284.624 126.028 284.472 125.729 284.403C125.427 284.326 125.096 284.343 124.736 284.454C124.36 284.571 124.054 284.755 123.818 285.008C123.582 285.26 123.432 285.557 123.368 285.9C123.303 286.243 123.333 286.615 123.457 287.016C123.584 287.425 123.777 287.76 124.037 288.02C124.294 288.272 124.601 288.437 124.957 288.516C125.311 288.586 125.684 288.56 126.077 288.438C126.404 288.337 126.685 288.187 126.919 287.989C127.162 287.788 127.346 287.543 127.472 287.253L128.408 287.757C128.231 288.171 127.965 288.527 127.609 288.825C127.261 289.121 126.858 289.34 126.399 289.482ZM132.944 287.457C132.371 287.634 131.81 287.66 131.26 287.534C130.718 287.406 130.241 287.154 129.829 286.78C129.423 286.394 129.132 285.919 128.958 285.354C128.78 284.781 128.752 284.225 128.872 283.686C129 283.144 129.253 282.671 129.63 282.268C130.013 281.853 130.491 281.558 131.064 281.38C131.514 281.241 131.958 281.198 132.396 281.251C132.831 281.295 133.237 281.434 133.614 281.667L133.105 282.632C132.86 282.475 132.589 282.383 132.294 282.358C132.005 282.322 131.705 282.352 131.394 282.448C131.026 282.562 130.725 282.749 130.492 283.01C130.256 283.262 130.102 283.561 130.03 283.906C129.957 284.252 129.98 284.616 130.099 285.001C130.218 285.386 130.405 285.7 130.66 285.944C130.915 286.188 131.212 286.352 131.552 286.435C131.891 286.518 132.245 286.503 132.613 286.389C132.924 286.293 133.19 286.152 133.411 285.967C133.638 285.772 133.812 285.538 133.934 285.267L134.886 285.78C134.713 286.174 134.456 286.518 134.116 286.812C133.785 287.102 133.394 287.317 132.944 287.457ZM137.072 286.045L134.512 277.771L135.617 277.429L138.177 285.703L137.072 286.045ZM134.143 281.665L133.832 280.658L137.809 279.428L138.121 280.434L134.143 281.665ZM140.696 284.924L138.891 279.093L139.996 278.751L141.8 284.582L140.696 284.924ZM140.771 281.255L140.297 281.2C140.066 280.456 140.055 279.809 140.262 279.261C140.469 278.713 140.895 278.338 141.542 278.138C141.836 278.047 142.119 278.018 142.389 278.051C142.657 278.076 142.93 278.175 143.208 278.349L142.715 279.322C142.552 279.229 142.388 279.177 142.223 279.165C142.058 279.153 141.877 279.178 141.681 279.239C141.271 279.365 140.976 279.6 140.796 279.943C140.615 280.286 140.607 280.723 140.771 281.255ZM145.635 283.396L143.831 277.565L144.936 277.223L146.74 283.054L145.635 283.396ZM144.022 276.228C143.818 276.291 143.63 276.277 143.458 276.187C143.284 276.088 143.166 275.937 143.102 275.732C143.042 275.536 143.056 275.352 143.147 275.18C143.235 275.001 143.381 274.879 143.586 274.816C143.79 274.753 143.979 274.77 144.153 274.869C144.325 274.959 144.441 275.103 144.502 275.299C144.565 275.504 144.553 275.696 144.465 275.875C144.374 276.047 144.227 276.164 144.022 276.228ZM151.07 281.849C150.497 282.026 149.935 282.052 149.385 281.926C148.843 281.798 148.367 281.546 147.955 281.171C147.549 280.786 147.258 280.311 147.083 279.746C146.906 279.173 146.878 278.617 146.998 278.078C147.126 277.536 147.379 277.063 147.756 276.66C148.139 276.245 148.617 275.949 149.19 275.772C149.64 275.633 150.084 275.59 150.521 275.642C150.957 275.687 151.363 275.826 151.74 276.059L151.231 277.024C150.985 276.866 150.715 276.775 150.42 276.75C150.131 276.714 149.831 276.744 149.52 276.84C149.152 276.954 148.851 277.141 148.618 277.402C148.382 277.654 148.228 277.953 148.155 278.298C148.083 278.643 148.106 279.008 148.225 279.393C148.344 279.778 148.531 280.092 148.786 280.336C149.041 280.58 149.338 280.743 149.677 280.827C150.017 280.91 150.371 280.895 150.739 280.781C151.05 280.684 151.316 280.544 151.537 280.359C151.763 280.163 151.938 279.93 152.06 279.659L153.012 280.171C152.838 280.566 152.582 280.91 152.242 281.203C151.911 281.494 151.52 281.709 151.07 281.849ZM158.819 279.451C158.492 279.552 158.168 279.608 157.848 279.617C157.534 279.615 157.23 279.575 156.936 279.495C156.64 279.408 156.368 279.281 156.119 279.116L156.611 278.184C156.905 278.38 157.211 278.5 157.53 278.545C157.846 278.582 158.176 278.547 158.52 278.441C158.863 278.334 159.112 278.195 159.264 278.022C159.415 277.841 159.457 277.644 159.391 277.431C159.325 277.218 159.197 277.079 159.006 277.012C158.821 276.935 158.598 276.896 158.338 276.896C158.075 276.888 157.797 276.889 157.505 276.898C157.217 276.898 156.936 276.873 156.661 276.823C156.385 276.774 156.137 276.667 155.916 276.502C155.703 276.335 155.542 276.075 155.433 275.724C155.324 275.372 155.316 275.042 155.41 274.735C155.5 274.42 155.676 274.146 155.935 273.914C156.203 273.678 156.554 273.493 156.988 273.359C157.446 273.217 157.877 273.174 158.279 273.229C158.687 273.273 159.055 273.419 159.383 273.667L158.892 274.6C158.662 274.437 158.407 274.337 158.126 274.298C157.853 274.257 157.565 274.284 157.263 274.377C156.943 274.476 156.716 274.609 156.579 274.777C156.448 274.934 156.413 275.111 156.474 275.307C156.535 275.504 156.655 275.632 156.836 275.693C157.016 275.754 157.236 275.784 157.496 275.785C157.764 275.782 158.042 275.782 158.329 275.782C158.614 275.775 158.895 275.8 159.173 275.858C159.451 275.915 159.698 276.031 159.913 276.207C160.137 276.38 160.305 276.646 160.416 277.006C160.586 277.555 160.524 278.049 160.23 278.49C159.944 278.928 159.474 279.248 158.819 279.451ZM164.868 277.579C164.295 277.757 163.733 277.782 163.183 277.657C162.642 277.528 162.165 277.277 161.753 276.902C161.347 276.517 161.056 276.042 160.882 275.477C160.704 274.904 160.676 274.348 160.796 273.809C160.924 273.267 161.177 272.794 161.554 272.39C161.937 271.976 162.415 271.68 162.988 271.503C163.438 271.364 163.882 271.32 164.32 271.373C164.755 271.418 165.161 271.557 165.538 271.79L165.029 272.754C164.783 272.597 164.513 272.506 164.218 272.481C163.929 272.445 163.629 272.475 163.318 272.571C162.95 272.685 162.649 272.872 162.416 273.133C162.18 273.385 162.026 273.684 161.953 274.029C161.881 274.374 161.904 274.739 162.023 275.124C162.142 275.508 162.329 275.823 162.584 276.067C162.839 276.311 163.136 276.474 163.476 276.557C163.815 276.641 164.169 276.625 164.537 276.511C164.848 276.415 165.114 276.275 165.335 276.09C165.561 275.894 165.736 275.661 165.858 275.39L166.81 275.902C166.637 276.297 166.38 276.641 166.04 276.934C165.709 277.225 165.318 277.44 164.868 277.579ZM170.754 275.758C170.181 275.935 169.624 275.96 169.082 275.832C168.54 275.703 168.063 275.452 167.651 275.077C167.237 274.694 166.941 274.216 166.764 273.643C166.589 273.079 166.567 272.53 166.698 271.996C166.826 271.454 167.078 270.977 167.452 270.565C167.827 270.154 168.301 269.859 168.874 269.682C169.438 269.507 169.992 269.484 170.534 269.612C171.081 269.73 171.561 269.976 171.973 270.351C172.385 270.725 172.678 271.195 172.853 271.76C173.03 272.332 173.056 272.894 172.93 273.444C172.802 273.986 172.546 274.464 172.163 274.878C171.788 275.29 171.319 275.583 170.754 275.758ZM170.423 274.69C170.792 274.576 171.092 274.389 171.326 274.129C171.559 273.868 171.712 273.565 171.784 273.22C171.854 272.867 171.83 272.497 171.711 272.113C171.594 271.736 171.405 271.427 171.142 271.186C170.887 270.942 170.591 270.783 170.254 270.707C169.922 270.622 169.573 270.636 169.204 270.75C168.836 270.864 168.535 271.051 168.302 271.311C168.066 271.564 167.912 271.862 167.839 272.208C167.767 272.553 167.789 272.914 167.905 273.29C168.024 273.675 168.213 273.993 168.47 274.245C168.725 274.489 169.022 274.653 169.362 274.736C169.701 274.82 170.055 274.804 170.423 274.69ZM177.707 273.607C177.134 273.784 176.577 273.809 176.035 273.68C175.493 273.552 175.016 273.301 174.604 272.926C174.19 272.543 173.894 272.065 173.717 271.492C173.542 270.928 173.52 270.378 173.651 269.845C173.779 269.303 174.031 268.826 174.405 268.414C174.78 268.002 175.254 267.708 175.827 267.53C176.391 267.356 176.945 267.333 177.487 267.461C178.034 267.578 178.514 267.824 178.926 268.199C179.338 268.574 179.631 269.044 179.806 269.608C179.983 270.181 180.009 270.743 179.883 271.293C179.755 271.835 179.499 272.313 179.116 272.727C178.741 273.139 178.272 273.432 177.707 273.607ZM177.376 272.539C177.745 272.425 178.045 272.238 178.279 271.977C178.512 271.717 178.665 271.414 178.737 271.069C178.807 270.715 178.783 270.346 178.664 269.962C178.547 269.585 178.358 269.276 178.095 269.035C177.84 268.791 177.544 268.631 177.207 268.556C176.875 268.47 176.526 268.485 176.157 268.598C175.789 268.712 175.488 268.9 175.255 269.16C175.019 269.412 174.865 269.711 174.792 270.056C174.72 270.402 174.742 270.763 174.858 271.139C174.977 271.524 175.166 271.842 175.423 272.094C175.678 272.338 175.975 272.502 176.315 272.585C176.654 272.668 177.008 272.653 177.376 272.539ZM182.674 271.935L180.114 263.662L181.219 263.32L183.779 271.594L182.674 271.935ZM179.745 267.555L179.434 266.549L183.411 265.318L183.723 266.325L179.745 267.555ZM188.857 270.157C188.275 270.337 187.711 270.368 187.164 270.251C186.614 270.125 186.133 269.875 185.721 269.5C185.309 269.125 185.013 268.647 184.833 268.066C184.656 267.493 184.628 266.937 184.748 266.398C184.876 265.856 185.125 265.385 185.494 264.983C185.868 264.572 186.338 264.278 186.903 264.104C187.443 263.936 187.956 263.912 188.441 264.031C188.934 264.148 189.362 264.387 189.726 264.75C190.097 265.11 190.368 265.565 190.538 266.113C190.563 266.195 190.587 266.286 190.609 266.387C190.628 266.479 190.645 266.591 190.658 266.721L185.736 268.244L185.451 267.324L189.784 265.983L189.489 266.464C189.368 266.071 189.196 265.761 188.973 265.534C188.748 265.299 188.486 265.147 188.186 265.078C187.885 265.001 187.554 265.019 187.194 265.13C186.817 265.246 186.511 265.431 186.275 265.683C186.039 265.935 185.889 266.233 185.825 266.576C185.761 266.918 185.79 267.29 185.915 267.691C186.041 268.1 186.234 268.435 186.494 268.696C186.752 268.948 187.058 269.113 187.414 269.191C187.768 269.261 188.141 269.235 188.534 269.114C188.861 269.012 189.142 268.863 189.377 268.665C189.619 268.464 189.804 268.219 189.929 267.929L190.865 268.433C190.688 268.846 190.422 269.202 190.066 269.501C189.718 269.797 189.315 270.015 188.857 270.157ZM192.699 268.834L190.895 263.003L192 262.661L193.804 268.492L192.699 268.834ZM192.775 265.165L192.3 265.11C192.07 264.365 192.058 263.719 192.265 263.171C192.472 262.622 192.899 262.248 193.546 262.048C193.84 261.957 194.123 261.928 194.393 261.961C194.661 261.986 194.933 262.085 195.211 262.259L194.719 263.232C194.556 263.139 194.391 263.087 194.226 263.075C194.061 263.063 193.881 263.088 193.684 263.149C193.275 263.275 192.98 263.51 192.799 263.853C192.618 264.196 192.61 264.633 192.775 265.165Z" fill="#B9B9B9"/>
<path d="M159.085 63.9291L161.617 72.1128" stroke="#E4E4E4" stroke-width="1.60623" stroke-linecap="round" stroke-linejoin="round"/>
<path d="M156.259 69.287L164.443 66.7549" stroke="#E4E4E4" stroke-width="1.60623" stroke-linecap="round" stroke-linejoin="round"/>
</g>
<g opacity="0.7" clip-path="url(#clip5_1_328)">
<g clip-path="url(#clip6_1_328)">
<path d="M248.654 84.5C248.658 84.9999 248.506 85.4884 248.219 85.8979C247.932 86.3074 247.525 86.6175 247.054 86.7852L237.32 90.3196L233.785 100.054C233.612 100.521 233.3 100.923 232.892 101.207C232.483 101.491 231.998 101.644 231.5 101.644C231.002 101.644 230.517 101.491 230.108 101.207C229.7 100.923 229.388 100.521 229.215 100.054L225.68 90.3196L215.946 86.7852C215.479 86.612 215.077 86.3003 214.793 85.8918C214.509 85.4833 214.356 84.9976 214.356 84.5C214.356 84.0024 214.509 83.5168 214.793 83.1083C215.077 82.6998 215.479 82.388 215.946 82.2149L225.68 78.6805L229.215 68.9457C229.388 68.4792 229.7 68.0769 230.108 67.7928C230.517 67.5087 231.002 67.3564 231.5 67.3564C231.998 67.3564 232.483 67.5087 232.892 67.7928C233.3 68.0769 233.612 68.4792 233.785 68.9457L237.32 78.6805L247.054 82.2149C247.525 82.3825 247.932 82.6926 248.219 83.1021C248.506 83.5116 248.658 84.0002 248.654 84.5Z" fill="#FFAA4C"/>
</g>
</g>
<g opacity="0.7" clip-path="url(#clip7_1_328)">
<g clip-path="url(#clip8_1_328)">
<path d="M268.496 49.5C268.498 49.8204 268.401 50.1336 268.217 50.3961C268.034 50.6586 267.773 50.8573 267.471 50.9648L261.231 53.2304L258.965 59.4707C258.854 59.7697 258.654 60.0276 258.392 60.2097C258.13 60.3918 257.819 60.4895 257.5 60.4895C257.181 60.4895 256.87 60.3918 256.608 60.2097C256.346 60.0276 256.146 59.7697 256.035 59.4707L253.77 53.2304L247.529 50.9648C247.23 50.8538 246.972 50.654 246.79 50.3921C246.608 50.1303 246.511 49.8189 246.511 49.5C246.511 49.181 246.608 48.8697 246.79 48.6078C246.972 48.346 247.23 48.1461 247.529 48.0351L253.77 45.7695L256.035 39.5293C256.146 39.2302 256.346 38.9723 256.608 38.7902C256.87 38.6081 257.181 38.5105 257.5 38.5105C257.819 38.5105 258.13 38.6081 258.392 38.7902C258.654 38.9723 258.854 39.2302 258.965 39.5293L261.231 45.7695L267.471 48.0351C267.773 48.1426 268.034 48.3414 268.217 48.6039C268.401 48.8664 268.498 49.1796 268.496 49.5Z" fill="#FFAA4C"/>
</g>
</g>
<defs>
<clipPath id="clip0_1_328">
<rect x="21.6675" y="90.7539" width="158.481" height="328.741" rx="26.7704" transform="rotate(-17.1923 21.6675 90.7539)" fill="white"/>
</clipPath>
<clipPath id="clip1_1_328">
<rect x="53.4199" y="157.151" width="137.065" height="113.507" rx="21.4163" transform="rotate(-17.1923 53.4199 157.151)" fill="white"/>
</clipPath>
<clipPath id="clip2_1_328">
<rect x="44.2411" y="127.485" width="25.6996" height="25.6996" rx="12.8498" transform="rotate(-17.1923 44.2411 127.485)" fill="white"/>
</clipPath>
<clipPath id="clip3_1_328">
<rect x="104.378" y="321.849" width="25.6996" height="25.6996" rx="12.8498" transform="rotate(-17.1923 104.378 321.849)" fill="white"/>
</clipPath>
<clipPath id="clip4_1_328">
<rect x="113.557" y="351.515" width="137.065" height="113.507" rx="21.4163" transform="rotate(-17.1923 113.557 351.515)" fill="white"/>
</clipPath>
<clipPath id="clip5_1_328">
<rect width="39" height="39" fill="white" transform="translate(212 65)"/>
</clipPath>
<clipPath id="clip6_1_328">
<rect width="39" height="39" fill="white" transform="translate(212 65)"/>
</clipPath>
<clipPath id="clip7_1_328">
<rect width="25" height="25" fill="white" transform="translate(245 37)"/>
</clipPath>
<clipPath id="clip8_1_328">
<rect width="25" height="25" fill="white" transform="translate(245 37)"/>
</clipPath>
</defs>
</svg>
