<svg width="90" height="90" viewBox="0 0 90 90" fill="none" xmlns="http://www.w3.org/2000/svg">
<rect width="90" height="90" rx="45" fill="#954CED"/>
<g clip-path="url(#clip0_1_443)">
<path d="M54.8388 22.6353H47.2093V53.4717C47.2093 57.1459 44.275 60.1639 40.6233 60.1639C36.9716 60.1639 34.0372 57.1459 34.0372 53.4717C34.0372 49.8632 36.9064 46.9107 40.4277 46.7796V39.0377C32.6679 39.1688 26.4078 45.533 26.4078 53.4717C26.4078 61.4762 32.7983 67.9058 40.6885 67.9058C48.5787 67.9058 54.9691 61.4105 54.9691 53.4717V37.6598C57.8383 39.7594 61.3595 41.0059 65.0765 41.0716V33.3296C59.3382 33.1328 54.8388 28.4089 54.8388 22.6353Z" fill="white"/>
</g>
<defs>
<clipPath id="clip0_1_443">
<rect width="45.2706" height="45.2706" fill="white" transform="translate(22.6353 22.6353)"/>
</clipPath>
</defs>
</svg>
