<svg width="184" height="46" viewBox="0 0 184 46" fill="none" xmlns="http://www.w3.org/2000/svg">
<g id="Layer_1" clip-path="url(#clip0_1_508)">
<g id="Group">
<path id="Vector" d="M75.9001 30.5273C72.9728 34.0819 68.791 36.3819 64.191 36.3819C56.2455 36.3819 49.9728 30.7364 49.9728 23.4182C49.9728 19.8637 51.4364 16.5182 54.1546 14.0092C56.6637 11.5001 60.2182 10.2455 63.7728 10.4546C68.3728 10.4546 72.7637 12.5455 75.4819 16.3092L70.2546 20.0728C68.791 17.7728 66.491 16.3092 63.7728 16.3092C59.8001 16.3092 56.4546 19.6546 56.4546 23.6273C56.6637 27.8092 60.0091 30.9455 63.9819 30.9455C66.7001 30.9455 69.2091 29.691 70.6728 27.391L75.9001 30.5273Z" fill="#181818"/>
<path id="Vector_2" d="M85.3091 0H78.8273V35.7545H85.3091V0Z" fill="#181818"/>
<path id="Vector_3" d="M102.664 30.7363C106.845 30.7363 110.4 27.3908 110.609 23.209C110.4 19.0272 106.845 15.6817 102.664 15.6817C98.4818 15.6817 94.9273 19.0272 94.7182 23.209C94.9273 27.3908 98.2727 30.7363 102.664 30.7363ZM102.664 10.2454C106.218 10.0363 109.773 11.2908 112.491 13.7999C115.209 16.309 116.673 19.6545 116.882 23.209C116.673 26.7636 115.209 30.3181 112.491 32.6181C109.773 35.1272 106.218 36.3817 102.664 36.1727C94.7182 36.1727 88.4454 30.5272 88.4454 23.209C88.4454 15.8908 94.7182 10.2454 102.664 10.2454Z" fill="#181818"/>
<path id="Vector_4" d="M115.627 10.6636H123.364L129.636 24.0454L136.327 10.6636H143.436L129.636 37.2181L115.627 10.6636Z" fill="#181818"/>
<path id="Vector_5" d="M162.045 19.6545C161 17.1454 158.7 15.6817 155.982 15.6817C153.264 15.6817 150.755 17.1454 149.5 19.6545H162.045ZM166.227 32.8272C163.509 35.1272 160.164 36.1726 156.609 36.1726C148.664 36.1726 142.391 30.5272 142.391 23.209C142.391 19.6545 143.855 16.309 146.364 13.7999C148.873 11.2908 152.427 10.0363 155.982 10.2454C159.536 10.0363 162.882 11.4999 165.391 14.009C167.9 16.5181 169.155 19.8636 168.945 23.4181V25.0908H148.873C149.918 28.4363 153.055 30.7363 156.609 30.7363C158.7 30.7363 160.791 29.8999 162.464 28.2272L166.227 32.8272ZM172.082 21.7454C172.082 15.6817 176.682 10.8727 184 10.8727V16.7272C182.536 16.7272 180.864 17.3545 179.818 18.3999C178.773 19.4454 178.355 21.1181 178.564 22.5817V35.7545H172.082V21.7454Z" fill="#181818"/>
<path id="Vector_6" d="M20.2819 11.7091C20.2819 7.52732 17.7728 3.97277 14.0091 2.30005C10.2455 0.627318 5.85459 1.46368 2.92731 4.39095C4.18574e-05 7.31823 -0.836322 11.7091 0.627315 15.4728C2.09095 19.2364 5.85459 21.7455 10.0364 21.7455H20.2819V11.7091ZM23.2091 11.7091C23.2091 7.52732 25.7182 3.97277 29.4819 2.30005C33.2455 0.627318 37.6364 1.46368 40.5637 4.39095C43.4909 7.31823 44.3273 11.7091 42.8637 15.4728C41.4 19.2364 37.6364 21.7455 33.4546 21.7455H23.2091V11.7091ZM23.2091 34.7091C23.2091 38.891 25.7182 42.4455 29.4819 44.1182C33.2455 45.791 37.6364 44.9546 40.5637 42.0273C43.4909 39.1 44.3273 34.7091 42.8637 30.9455C41.4 27.1819 37.6364 24.6728 33.4546 24.6728H23.2091V34.7091ZM10.0364 42.0273C14.0091 42.0273 17.3546 38.891 17.3546 34.7091V27.391H10.0364C6.06368 27.391 2.71822 30.5273 2.71822 34.7091C2.71822 38.891 6.06368 42.0273 10.0364 42.0273ZM20.2819 34.7091C20.2819 38.891 17.7728 42.4455 14.0091 44.1182C10.2455 45.791 5.85459 44.9546 2.92731 42.0273C4.18574e-05 39.1 -0.836322 34.7091 0.627315 30.9455C2.09095 27.1819 5.85459 24.6728 10.0364 24.6728H20.2819V34.7091Z" fill="#444444"/>
</g>
</g>
<defs>
<clipPath id="clip0_1_508">
<rect width="184" height="46" fill="white"/>
</clipPath>
</defs>
</svg>
