<svg width="90" height="90" viewBox="0 0 90 90" fill="none" xmlns="http://www.w3.org/2000/svg">
<g clip-path="url(#clip0_1_438)">
<path d="M90 45C90 20.1472 69.8528 0 45 0C20.1472 0 0 20.1472 0 45C0 67.4605 16.4558 86.0774 37.9688 89.4533V58.0078H26.543V45H37.9688V35.0859C37.9688 23.8078 44.6871 17.5781 54.9659 17.5781C59.8878 17.5781 65.0391 18.457 65.0391 18.457V29.5313H59.3648C53.775 29.5313 52.0312 33.0003 52.0312 36.5625V45H64.5117L62.5166 58.0078H52.0312V89.4533C73.5442 86.0774 90 67.4605 90 45Z" fill="#954CED"/>
<path d="M62.5166 58.0076L64.5117 44.9998H52.0312V36.5623C52.0312 33.0036 53.775 29.531 59.3648 29.531H65.0391V18.4568C65.0391 18.4568 59.8896 17.5779 54.9659 17.5779C44.6871 17.5779 37.9688 23.8076 37.9688 35.0857V44.9998H26.543V58.0076H37.9688V89.4531C42.6279 90.182 47.3721 90.182 52.0312 89.4531V58.0076H62.5166Z" fill="white"/>
</g>
<defs>
<clipPath id="clip0_1_438">
<rect width="90" height="90" rx="45" fill="white"/>
</clipPath>
</defs>
</svg>
