<svg width="126" height="60" viewBox="0 0 126 60" fill="none" xmlns="http://www.w3.org/2000/svg">
<g id="&#208;&#161;&#208;&#187;&#208;&#190;&#208;&#185;_1" clip-path="url(#clip0_1_446)">
<g id="bGNggQ.tif">
<path id="Vector" d="M21.54 59.9999C21.0106 59.916 20.4758 59.8561 19.9528 59.7418C17.5627 59.2191 15.8545 57.81 14.9609 55.5353C13.646 52.1846 13.5563 48.7436 14.7243 45.3407C15.7594 42.332 18.2726 40.5821 21.4233 40.5494C22.3917 40.526 23.3595 40.6189 24.3061 40.826C26.9068 41.438 28.5838 43.1465 29.3736 45.6696C30.3331 48.7382 30.3396 51.8525 29.2991 54.9015C28.2747 57.9026 26.1656 59.6329 22.9749 59.9106C22.8533 59.9306 22.7333 59.9601 22.6162 59.9988L21.54 59.9999ZM19.1003 50.083C19.2829 51.4812 19.3834 52.7073 19.62 53.9062C19.7929 54.7774 20.3418 55.4362 21.2602 55.6703C22.6713 56.0286 23.9193 55.2761 24.3353 53.7603C24.7502 52.2195 24.8741 50.6137 24.7005 49.0267C24.6024 48.0965 24.4072 47.1792 24.1181 46.2903C24.0013 45.8952 23.7743 45.5423 23.4642 45.2736C23.1541 45.0049 22.7738 44.8316 22.3688 44.7745C21.1057 44.5676 20.1235 45.1099 19.7432 46.4623C19.4007 47.6819 19.2894 48.9679 19.1003 50.083Z" fill="#181818"/>
<path id="Vector_2" d="M124.855 59.4564C123.039 59.4673 121.224 59.4815 119.408 59.488C117.895 59.4934 116.392 59.488 114.849 59.488V41.0775C114.966 41.0543 115.085 41.0391 115.204 41.0317C118.279 41.0317 121.354 41.0317 124.43 41.0317C124.572 41.0406 124.714 41.058 124.855 41.084V44.9976H119.804V48.3733H124.081V52.1922H119.799V55.5395H124.855V59.4564Z" fill="#181818"/>
<path id="Vector_3" d="M110.065 59.9998C109.323 59.8768 108.568 59.8038 107.842 59.6209C106.069 59.1732 104.473 58.1905 103.269 56.8042C102.065 55.4179 101.31 53.694 101.104 51.8633C100.875 49.9294 100.9 48.0085 101.685 46.2009C103.232 42.6466 106.006 40.7835 109.826 40.5679C110.997 40.5025 112.183 40.6767 113.392 40.7486V45.2437L111.801 44.9682C108.335 44.3617 106.507 46.9599 106.301 49.4797C106.218 50.5152 106.286 51.5486 106.643 52.5287C107.407 54.6444 109.379 55.814 111.652 55.4884C112.219 55.4067 112.78 55.2836 113.424 55.1617V59.5544L111.047 59.99L110.065 59.9998Z" fill="#181818"/>
<path id="Vector_4" d="M9.55739 59.9999C8.92098 59.8976 8.27917 59.8246 7.65032 59.6896C3.81997 58.8631 1.01069 55.6779 0.591462 51.7404C0.440193 50.3248 0.43371 48.919 0.766502 47.5295C1.73138 43.5005 5.16086 40.6867 9.34669 40.5658C10.5201 40.532 11.6989 40.6867 12.8907 40.7564V45.2438C12.3569 45.1524 11.8351 45.0652 11.3143 44.9738C7.83832 44.3585 5.97231 46.96 5.78971 49.5778C5.713 50.6721 5.80916 51.7556 6.23487 52.776C7.05065 54.736 8.9642 55.8054 11.1381 55.4983C11.7065 55.4177 12.2683 55.2947 12.8745 55.1836V59.5752L10.5288 60.0043L9.55739 59.9999Z" fill="#181818"/>
<path id="Vector_5" d="M68.3059 32.9933L70.8721 39.3636C70.5112 39.1697 70.2832 39.0511 70.0606 38.928C66.7111 37.0518 63.3756 35.1668 60.0186 33.3113C59.6436 33.1124 59.2267 33.0071 58.803 33.0042C50.6186 32.9868 42.4332 32.9825 34.2466 32.9912C31.1413 32.9912 28.7188 31.0104 28.1116 27.9538C28.0431 27.5251 28.0166 27.0907 28.0327 26.6569C28.0273 19.936 28.0738 13.214 28.01 6.49425C27.9787 3.13926 30.3266 0.781725 32.7999 0.314575C33.2752 0.217105 33.7584 0.163887 34.2434 0.155591C51.9635 0.148332 69.6836 0.148332 87.4036 0.155591C90.4722 0.155591 92.8817 2.07428 93.5387 5.07428C93.659 5.69573 93.713 6.32837 93.6997 6.9614C93.7112 13.3752 93.713 19.7883 93.7051 26.2006C93.7051 27.7872 93.4414 29.2964 92.4268 30.5912C91.1994 32.156 89.5884 32.9803 87.6273 32.9868C81.4566 33.014 75.2859 32.9966 69.1152 32.9966L68.3059 32.9933ZM44.9857 17.7614C45.0364 17.8224 45.0667 17.8442 45.0775 17.8703C45.1078 17.9552 45.1304 18.0423 45.1564 18.1284C46.1612 21.3952 47.407 24.5531 49.4783 27.2982C50.0931 28.1139 50.7695 28.9262 51.5637 29.5534C52.9813 30.6717 54.5891 29.9759 54.9132 28.1944C54.9488 27.9055 54.9593 27.614 54.9446 27.3233C54.9446 26.0373 54.8581 24.7425 54.9727 23.4663C55.1887 21.0587 55.4567 18.65 55.8262 16.2619C56.3189 13.0823 56.9165 9.92111 58.3697 6.99951C58.7922 6.15015 58.6863 5.29098 58.0715 4.56249C57.4232 3.78717 56.5739 3.47356 55.5594 3.71203C54.803 3.88735 54.3611 4.40024 54.0294 5.05468C52.4486 8.17229 51.7549 11.5491 51.1931 14.9639C50.9575 16.3948 50.7901 17.8376 50.5794 19.3719C50.4897 19.1487 50.4249 19.0202 50.387 18.8852C49.7787 16.7509 49.1596 14.6188 48.5751 12.4779C48.3147 11.5229 48.2077 10.5178 47.8868 9.58681C47.3465 8.02855 45.5951 7.70405 44.4681 8.91167C44.1905 9.21998 43.9544 9.56377 43.7658 9.93418C42.6345 12.075 41.5216 14.2267 40.4011 16.3741C39.6178 17.8746 38.8333 19.3752 38.024 20.9182C37.9782 20.8185 37.9399 20.7155 37.9095 20.61C37.0711 16.1411 36.2355 11.6717 35.4028 7.20205C35.2504 6.37991 35.1802 5.50223 34.3417 5.06013C33.4071 4.56902 32.4422 4.64198 31.5865 5.24307C30.7848 5.80496 30.5622 6.66739 30.7156 7.60496C31.1564 10.2946 31.5433 12.9952 32.0986 15.663C32.8474 19.2663 33.6978 22.85 34.5838 26.4206C34.828 27.4006 35.2742 28.3643 35.7788 29.2518C36.3104 30.1861 37.1834 30.3309 38.0305 29.6775C38.6054 29.2322 39.1813 28.6975 39.5432 28.0834C40.6237 26.2507 41.6232 24.3668 42.6151 22.4808C43.4341 20.9324 44.1904 19.3523 44.9857 17.7614ZM90.4647 15.2982C90.4312 13.9665 90.2691 12.6293 89.8066 11.3378C88.7424 8.36067 86.3642 6.59225 83.4026 6.57374C80.912 6.5585 79.0309 7.71494 77.5982 9.67501C75.2459 12.8928 74.4269 16.5211 74.9682 20.4467C75.2297 22.3458 75.9526 24.0826 77.3961 25.4111C80.1708 27.9647 84.617 27.638 87.1303 24.6761C89.4058 21.9962 90.3869 18.822 90.4647 15.2982ZM65.0526 27.1284C65.3918 27.1033 65.7344 27.1001 66.0715 27.0511C68.2022 26.7364 69.757 25.5266 70.9542 23.7962C72.282 21.8965 73.1302 19.6991 73.4253 17.3944C73.7041 15.2471 73.6101 13.1476 72.8472 11.1004C70.9445 5.99552 64.6712 5.14615 61.5172 8.77229C58.0294 12.7828 57.0321 17.4358 58.6679 22.5178C59.6242 25.4906 62.0618 27.1066 65.0526 27.1284Z" fill="#181818"/>
<path id="Vector_6" d="M36.3568 47.1199C35.9473 51.223 35.5378 55.3261 35.1251 59.4564H30.4411C31.218 53.3214 31.9927 47.2092 32.7718 41.0655H39.0581C39.7409 44.378 40.427 47.7079 41.1304 51.1196C41.4481 49.5428 41.729 48.0477 42.0521 46.5624C42.426 44.8484 42.8301 43.1421 43.2406 41.4379C43.2785 41.2811 43.4848 41.0491 43.6156 41.0481C45.6285 41.023 47.6426 41.0306 49.7279 41.0306C50.5588 47.1755 51.3789 53.3018 52.2087 59.4891H48.7684C47.2903 59.4891 47.2936 59.4891 47.1477 58.0114C46.7771 54.3918 46.4032 50.7733 45.9592 47.1297C45.9149 47.2658 45.8619 47.3987 45.8284 47.537C44.8978 51.3671 43.9718 55.198 43.0505 59.0295C42.9662 59.3813 42.8344 59.5076 42.48 59.4967C41.6891 59.4727 40.896 59.4684 40.1029 59.4967C39.7118 59.5109 39.5475 59.3932 39.4546 58.9958C38.5038 55.1519 37.5281 51.3145 36.5589 47.476C36.5286 47.3573 36.4865 47.2408 36.4508 47.1243L36.3568 47.1199Z" fill="#181818"/>
<path id="Vector_7" d="M58.7706 47.0951C58.3611 51.1971 57.9527 55.2991 57.5388 59.4435H52.8603C53.0148 58.1989 53.1639 56.9673 53.3206 55.7412C53.8471 51.5742 54.3751 47.4072 54.9046 43.2403C54.9791 42.6479 55.0645 42.0566 55.1207 41.4631C55.1499 41.1593 55.2482 41.021 55.5831 41.0276C57.3994 41.0417 59.2168 41.0515 61.0331 41.0221C61.4999 41.0145 61.5032 41.3118 61.5626 41.5982C62.1857 44.6268 62.8059 47.6559 63.4232 50.6853C63.4311 50.735 63.4504 50.7822 63.4794 50.8232C63.5085 50.8642 63.5466 50.8979 63.5907 50.9216C63.7841 49.9241 63.958 48.9223 64.1763 47.9292C64.6495 45.7753 65.1487 43.6279 65.6231 41.474C65.7009 41.119 65.8575 41.0221 66.2055 41.0265C68.0228 41.0424 69.8395 41.0424 71.6555 41.0265C72.0153 41.0265 72.1384 41.1288 72.1871 41.5023C72.9528 47.2969 73.7296 53.0896 74.5177 58.8806C74.5415 59.057 74.5436 59.2355 74.5598 59.4544H69.6911C69.2589 55.347 68.8293 51.2352 68.4021 47.119L68.3113 47.1114C67.3238 51.2243 66.3373 55.3383 65.34 59.4904C64.2865 59.4904 63.2633 59.5056 62.2422 59.4708C62.119 59.4708 61.9397 59.2105 61.8954 59.0417C61.2795 56.6624 60.682 54.2777 60.0801 51.8951L58.8786 47.1114L58.7706 47.0951Z" fill="#181818"/>
<path id="Vector_8" d="M92.4485 59.4575H87.5171V41.0949C87.5666 41.0698 87.6193 41.0519 87.6738 41.0415C90.2064 41.0883 92.7413 41.0905 95.2718 41.2081C96.4258 41.2615 97.5084 41.7134 98.4863 42.3646C101.668 44.4825 101.512 49.0669 98.2021 50.9671C98.094 51.0292 97.986 51.0869 97.8023 51.1849C99.0989 53.9257 100.395 56.6546 101.727 59.4607C101.486 59.4738 101.316 59.4901 101.148 59.4901C99.7807 59.4901 98.4139 59.4749 97.0416 59.501C96.6429 59.5087 96.442 59.3834 96.2702 59.0175C95.1216 56.5642 93.9471 54.1174 92.7802 51.6793C92.7076 51.5029 92.5915 51.3481 92.4431 51.2295L92.4485 59.4575ZM92.4344 49.0604C93.181 48.9014 93.8844 48.8034 94.5543 48.5965C95.2242 48.3896 95.6348 47.8811 95.6748 47.158C95.7126 46.3958 95.5895 45.6618 94.9087 45.1838C94.1718 44.6666 93.3183 44.6317 92.4344 44.6023V49.0604Z" fill="#181818"/>
<path id="Vector_9" d="M85.3507 48.3505C85.3507 49.5756 85.3507 50.6972 85.3507 51.8188C85.3507 51.9277 85.3388 52.03 85.3302 52.189H81.0201V55.5723H86.0076C86.0344 55.7251 86.0531 55.8792 86.0638 56.034C86.0638 57.0489 86.0638 58.0627 86.0638 59.0776C86.0638 59.3291 86.0638 59.5382 85.7116 59.5371C82.5274 59.5229 79.3442 59.5208 76.1611 59.5142C76.146 59.5142 76.1308 59.4968 76.0682 59.4598V41.1113H85.9795V44.9901H81.006V48.3505H85.3507Z" fill="#181818"/>
<path id="Vector_10" d="M85.7678 15.2622C85.7299 17.4989 85.3356 19.2488 84.1881 20.7275C83.7704 21.245 83.2644 21.6831 82.6938 22.0212C81.7894 22.5657 80.9239 22.3163 80.3815 21.4059C79.609 20.1123 79.3572 18.7065 79.5063 17.1961C79.6704 15.4769 80.335 13.8448 81.4166 12.505C81.6739 12.181 81.9772 11.897 82.3167 11.6622C83.2805 10.9958 84.2972 11.2266 84.9023 12.2317C85.5301 13.2793 85.8013 14.427 85.7678 15.2622Z" fill="#181818"/>
<path id="Vector_11" d="M68.9056 15.6586C68.8365 17.5729 68.4345 19.3882 67.1822 20.8985C66.809 21.3376 66.3665 21.7117 65.8727 22.006C64.9575 22.5591 64.0726 22.3196 63.5032 21.406C62.6885 20.0992 62.4875 18.6379 62.6312 17.1341C62.7858 15.4848 63.4191 13.918 64.4518 12.6292C64.7475 12.2438 65.1007 11.9069 65.4988 11.6306C66.4389 11.0056 67.4189 11.231 68.0066 12.1936C68.6415 13.2328 68.9545 14.4392 68.9056 15.6586Z" fill="#181818"/>
</g>
</g>
<defs>
<clipPath id="clip0_1_446">
<rect width="126" height="60" fill="white"/>
</clipPath>
</defs>
</svg>
